<svg width="200" height="200" viewBox="0 0 200 200" fill="none" xmlns="http://www.w3.org/2000/svg">
  <!-- Background Circle -->
  <circle cx="100" cy="100" r="95" fill="#1A1A1A" />
  
  <!-- Komodo Silhouette -->
  <path d="M40 130C40 130 50 120 70 120C90 120 110 110 120 90C130 70 150 65 170 70C180 75 185 85 175 95C165 105 140 105 130 115C120 125 110 150 80 150C50 150 40 130 40 130Z" fill="url(#komodo_grad)" />
  
  <!-- The Tongue (Iconic Komodo feature) -->
  <path d="M180 85L195 80M180 85L195 90" stroke="#00FFCC" stroke-width="3" stroke-linecap="round" />
  
  <!-- AI Eye -->
  <circle cx="155" cy="82" r="4" fill="#00FFCC" />
  
  <!-- Circuit Pattern on Back -->
  <path d="M85 125L95 115M105 120L115 110M70 130L80 120" stroke="#1A1A1A" stroke-width="2" stroke-opacity="0.5" />

  <defs>
    <linearGradient id="komodo_grad" x1="40" y1="150" x2="175" y2="70" gradientUnits="userSpaceOnUse">
      <stop stop-color="#008F7A" />
      <stop offset="1" stop-color="#00FFCC" />
    </linearGradient>
  </defs>
</svg>
